<?xml version="1.0" encoding="iso-8859-1"?>
<!-- Generator: Adobe Illustrator 18.0.0, SVG Export Plug-In . SVG Version: 6.00 Build 0)  -->
<!DOCTYPE svg PUBLIC "-//W3C//DTD SVG 1.1//EN" "http://www.w3.org/Graphics/SVG/1.1/DTD/svg11.dtd">
<svg version="1.1" id="Capa_1" xmlns="http://www.w3.org/2000/svg" xmlns:xlink="http://www.w3.org/1999/xlink" x="0px" y="0px"
	 viewBox="0 0 297 297" style="enable-background:new 0 0 297 297;" xml:space="preserve">
<g>
	<g>
		<g>
			<path style="fill:#935733;" d="M100.529,155.5c-2.48,40.829-26.497,75.931-60.812,94.073
				c25.635,27.577,61.622,45.395,101.783,47.259V155.5H100.529z"/>
		</g>
		<g>
			<path style="fill:#935733;" d="M100.529,141.5H141.5V0.169C101.339,2.033,65.352,19.85,39.717,47.427
				C74.033,65.569,98.049,100.671,100.529,141.5z"/>
		</g>
		<g>
			<path style="fill:#935733;" d="M191.221,141.5c2.565-42.224,28.16-78.33,64.362-95.878C230.069,19.072,194.779,1.992,155.5,0.169
				V141.5H191.221z"/>
		</g>
		<g>
			<path style="fill:#935733;" d="M191.221,155.5H155.5v141.331c39.279-1.823,74.569-18.903,100.083-45.453
				C219.381,233.83,193.786,197.724,191.221,155.5z"/>
		</g>
		<g>
			<path style="fill:#844628;" d="M30.45,58.413C12.676,81.669,1.616,110.327,0.169,141.5h86.333
				C83.969,104.963,61.775,73.757,30.45,58.413z"/>
		</g>
		<g>
			<path style="fill:#844628;" d="M86.502,155.5H0.169c1.447,31.173,12.507,59.831,30.281,83.087
				C61.775,223.243,83.969,192.037,86.502,155.5z"/>
		</g>
		<g>
			<path style="fill:#844628;" d="M265.168,240.379c18.585-23.568,30.178-52.902,31.663-84.879h-91.583
				C207.884,193.523,231.815,225.772,265.168,240.379z"/>
		</g>
		<g>
			<path style="fill:#844628;" d="M205.248,141.5h91.583c-1.484-31.977-13.077-61.311-31.663-84.879
				C231.815,71.228,207.884,103.477,205.248,141.5z"/>
		</g>
		<g>
			<path style="fill:#FFFFFF;" d="M297,148.5c0-2.347-0.061-4.68-0.169-7h-91.583c2.636-38.023,26.566-70.272,59.92-84.879
				c-3.015-3.823-6.216-7.493-9.585-10.999c-36.202,17.548-61.797,53.654-64.362,95.878H155.5V0.169C153.18,0.061,150.847,0,148.5,0
				s-4.68,0.061-7,0.169V141.5h-40.971c-2.48-40.829-26.497-75.931-60.812-94.073c-3.261,3.508-6.354,7.174-9.267,10.985
				c31.325,15.344,53.519,46.551,56.051,83.087H0.169C0.061,143.82,0,146.153,0,148.5s0.061,4.68,0.169,7h86.333
				c-2.533,36.537-24.727,67.743-56.051,83.087c2.913,3.811,6.006,7.477,9.267,10.985c34.315-18.141,58.331-53.244,60.812-94.073
				H141.5v141.331c2.32,0.108,4.653,0.169,7,0.169s4.68-0.061,7-0.169V155.5h35.721c2.565,42.224,28.16,78.33,64.362,95.878
				c3.369-3.506,6.57-7.176,9.585-10.999c-33.354-14.607-57.285-46.856-59.92-84.879h91.583C296.939,153.18,297,150.847,297,148.5z"
				/>
		</g>
	</g>
	<g style="opacity:0.19;">
		<path style="fill:#935733;" d="M219.668,16.742c31.381,24.726,51.53,63.07,51.53,106.122c0,74.575-60.455,135.031-135.031,135.031
			c-72.557,0-131.739-57.229-134.89-129.01c-0.726,5.953-1.108,12.012-1.108,18.161c0,81.965,66.446,148.411,148.411,148.411
			s148.411-66.446,148.411-148.411C296.991,90.838,265.74,41.931,219.668,16.742z"/>
	</g>
</g>
<g>
</g>
<g>
</g>
<g>
</g>
<g>
</g>
<g>
</g>
<g>
</g>
<g>
</g>
<g>
</g>
<g>
</g>
<g>
</g>
<g>
</g>
<g>
</g>
<g>
</g>
<g>
</g>
<g>
</g>
</svg>
